Patient4_TMGait_0pt3_03_left_16_EMG.mot
version=1
nRows=19
nColumns=33
inDegrees=no
endheader
time	1LAddLong	2LGlutMax	3LGlutMed	4LIliopsoas	5LSemiMemb	6LBicFemLong	7LRecFem	8LVastMed	9LVastLat	10LGasMed	11LTibAnt	12lTibPost	13LPeroneusLong	14LSol	15LExtDigLong	16LFlexDigLong	17RAddLong	18RGlutMax	19RGlutMed	20RIliopsoas	21RSemiMemb	22RBicFemLong	23RRecFem	24RVastMed	25RVastLat	26RGasMed	27RTibAnt	28RTibPost	29RPeroneusLong	30RSol	31RExtDigLong	32RFlexDigLong
29.947	0.03006	0.007324	-0.032349	0.006256	-0.048218	0.23468	-0.22461	0.000916	-0.024261	-0.064697	0.014801	-0.020752	-0.19745	-0.078888	0.063934	-0.007172	-0.003815	-0.31479	0.06485	0.021973	-0.13489	-0.029144	0.058746	-0.031433	-0.010223	0.000153	0.17822	-0.019226	-0.038452	-0.088806	0.001373	-0.033264
29.948	-0.011292	0.019684	-0.010681	0.007172	-0.094757	0.22507	-0.25207	0.006409	-0.002289	-0.1329	0.006714	-0.00824	-0.050049	0.024719	-0.011902	0.000153	0.011902	-0.25589	0.14725	-0.000153	-0.065613	-0.043182	0.078278	-0.052948	-0.002136	0.001831	0.30945	-0.016632	-0.027771	-0.10834	-0.00473	-0.029755
29.949	-0.016479	-0.039063	0.11398	-0.000763	-0.06134	0.20065	-0.20004	0.008545	0.018005	-0.040436	-0.012817	-0.007019	-0.071106	0.072632	-0.1294	-0.005341	0.010376	-0.27741	0.168	-0.024872	0.023651	-0.043945	0.098572	-0.050049	-0.010529	0.00473	-0.003662	-0.018768	0.011749	-0.13611	-0.000153	-0.023193
29.95	0.007172	-0.13382	-0.018158	0.007172	-0.010529	0.08255	-0.17654	-0.002441	0.028229	0.25604	-0.015564	-0.001526	-0.024719	0.26215	-0.089722	-0.014801	0.030212	-0.31418	0.18188	-0.046387	0.045624	0.033112	0.11322	-0.082092	-0.010986	-0.005035	-0.077667	-0.014801	-0.008698	-0.22553	0.000305	-0.032043
29.951	0.015259	-0.16098	-0.14969	0.00946	-0.006409	-0.18723	-0.20126	0.002441	0.00473	0.22415	0.000305	-0.00473	0.011749	0.26352	-0.027618	-0.013428	0.017395	-0.24704	0.13916	-0.016479	-0.00061	0.14557	0.11948	-0.077515	-0.024261	0.002594	-0.22949	-0.012054	-0.12146	-0.24429	-0.00061	-0.028229
29.952	0.014191	-0.080109	-0.19898	0.003967	0.013428	-0.4422	-0.2034	-0.012665	-0.032806	-0.083618	-0.012817	0.010834	0.064697	0.15625	0.028687	-0.014954	0.014648	-0.17166	0.13672	0.012054	-0.044556	0.097351	0.095367	-0.051575	-0.027313	-0.001373	-0.002289	-0.010681	-0.14572	-0.26291	-0.00412	-0.0354
29.953	0.023651	-0.024872	-0.031586	-0.010071	0.083771	-0.38803	-0.18127	-0.004272	-0.038452	-0.068359	-0.03067	0.002747	0.056152	-0.004883	0.02182	-0.009003	0.026093	-0.17181	0.21027	0.038757	0.060272	-0.032349	0.011902	-0.055084	-0.018311	0.006256	0.038757	-0.010681	-0.077972	-0.31494	-0.003052	-0.020599
29.954	0.014496	-0.039978	0.056915	-0.000458	0.10361	-0.23819	-0.19287	-0.007782	0.00885	-0.045166	-0.001068	0.014954	-0.075226	0.002899	0.003052	-0.012054	0.021667	-0.25207	0.24262	-0.014496	-0.026703	-0.003967	-0.11856	-0.036774	0.035553	0.01297	0.011597	-0.014496	0.052643	-0.19638	-0.00473	-0.030518
29.955	0.002899	-0.054169	0.048828	-0.000153	0.050964	-0.065918	-0.21469	0.004883	0.05188	-0.037842	-0.009003	0.019836	-0.014343	0.093689	0.032196	-0.017395	0.013733	-0.20111	0.21164	-0.011749	-0.025635	0.025635	-0.085754	-0.014191	0.03952	0.006104	0.063324	-0.011902	0.032806	-0.078125	-0.001221	-0.030823
29.956	-0.007477	-0.0737	0.048523	0.014496	0.026855	0.081482	-0.2092	0.019226	0.096588	-0.02182	0.024261	0.0177	0.084686	0.097656	0.004425	-0.00351	0.011902	-0.19867	0.20996	-0.02533	-0.054779	0.025177	0.003357	-0.012665	0.031281	0.000153	0.037537	-0.00946	0.00885	-0.013428	-0.003052	-0.032654
29.957	-0.027618	-0.050507	0.12894	0.020294	-0.00885	0.090637	-0.18478	0.018463	0.090179	0.020599	0.010529	0.016937	0.11673	0.075989	-0.016785	-0.008545	0.021667	-0.21912	0.25833	-0.050659	-0.037231	0.061951	0.005951	0.012054	0.006866	-0.003815	0.03418	-0.007019	0.005035	-0.002747	-0.00351	-0.032806
29.958	-0.033112	-0.12253	0.098724	0.018616	-0.063019	0.084534	-0.12863	0.017242	0.037537	0.1088	-0.025177	0.022736	0.16281	0.1207	-0.009155	-0.010529	0.014191	-0.1831	0.18662	-0.091553	0.025787	0.10925	0.050201	-0.040588	0.003815	-0.007172	0.074158	-0.00946	-0.042877	0.070648	-0.003052	-0.035706
29.959	-0.015869	-0.13031	0.080719	0.010223	-0.072021	0.004578	-0.088806	0.014191	-0.14648	0.16266	0.010529	0.027161	0.098267	0.12054	0.031433	-0.013428	0.007477	-0.19501	0.19211	-0.040131	0.054016	0.14954	0.012054	-0.024261	0.000153	-0.012207	0.11124	-0.007935	-0.16098	0.18448	-0.003662	-0.038147
29.96	-0.012512	-0.14755	0.022888	-0.001984	-0.10635	0.032043	-0.121	0.017395	-0.31448	0.015717	0.030823	0.013123	0.050812	-0.017853	0.01236	-0.015411	-0.002899	-0.17609	0.18036	0.045624	0.034485	0.16113	-0.004578	0.00946	-0.005493	-0.011902	-0.002747	-0.003204	-0.1622	0.086975	-0.004578	-0.033569
29.961	-0.007629	-0.17563	-0.011139	-0.007782	-0.079498	0.044708	-0.23361	-0.024109	-0.27969	-0.10666	0.002899	0.021515	0.027771	-0.13733	0.012207	-0.015869	-0.008545	-0.11871	0.14572	0.02121	-0.007019	0.080719	-0.022888	0.005646	0.016022	-0.007477	-0.11398	-0.004425	-0.1181	-0.011597	-0.004578	-0.028687
29.962	-0.001221	-0.25223	0.054474	0.004425	-0.019226	0.019226	-0.31357	0.007019	-0.15686	0.12405	0.006256	0.019226	0.012512	-0.041046	0.010071	-0.006104	-0.01358	-0.098114	0.12665	0.021973	-0.028381	0.031128	-0.000763	0.031891	-0.002289	-0.00885	0.13825	-0.000763	-0.085297	-0.13168	-0.002441	-0.031738
29.963	-0.007935	-0.24078	-0.041046	0.009613	0.013428	0.0354	-0.32547	0.018005	-0.05661	-0.000763	0.002441	0.019684	-0.019684	-0.00412	0.01358	0.003662	-0.005188	-0.068359	0.11063	0.01236	0.00351	0.051117	0.028687	-0.009003	0.004272	-0.007477	0.4686	-0.002136	-0.090179	-0.043793	-0.001678	-0.018005
29.964	-0.005951	-0.1857	-0.090637	0.005493	0.042725	-0.086823	-0.48569	0.004425	0.010986	-0.092163	0.015869	0.018921	-0.001068	-0.12146	0.039673	-0.052185	-0.019073	-0.0914	0.11826	-0.021515	0.049133	-0.011902	0.018311	0.020447	-0.002289	-0.007019	0.57098	-0.002441	-0.025482	0.019073	-0.001984	-0.025787
29.965	-0.00351	-0.16617	-0.085602	0.007172	0.059662	-0.081177	-0.55359	-0.007629	0.033264	-0.040741	0	0.032349	0.017853	-0.177	0.047913	-1.2395	-0.012512	-0.064392	0.1413	-0.043793	0.033875	-0.015106	-0.007324	-0.03952	0.005341	-0.007629	0.37415	-0.000916	-0.071869	0.087128	0.010071	-0.03067
